<svg xmlns="http://www.w3.org/2000/svg" width="225" height="400" viewBox="0 0 225 400"><rect width="100%" height="100%" fill="#DDDDDD"/><path fill="#999999" d="M53.265 207.395h5.57q.59 0 .95.34.35.34.35.89v2.22h-14.88v-1.23q0-.37.16-.79.16-.41.5-.74l6.59-6.6q.82-.84 1.47-1.6.66-.77 1.09-1.52.44-.75.67-1.52.23-.77.23-1.63 0-.78-.22-1.37-.23-.59-.64-1-.41-.4-.99-.61-.58-.2-1.3-.2-.66 0-1.22.19-.56.19-1 .52-.43.34-.74.79-.29.45-.44.99-.26.69-.66.92-.41.22-1.17.1l-1.95-.34q.22-1.56.87-2.74.64-1.18 1.61-1.97.97-.78 2.22-1.18 1.25-.4 2.69-.4 1.5 0 2.75.44 1.24.45 2.12 1.26.89.8 1.39 1.94.49 1.15.49 2.54 0 1.2-.35 2.22-.35 1.02-.95 1.95-.59.93-1.38 1.8-.8.87-1.67 1.77l-4.89 5q.71-.22 1.4-.33.7-.11 1.33-.11Zm17.4 0h5.56q.6 0 .96.34.35.34.35.89v2.22h-14.88v-1.23q0-.37.16-.79.15-.41.5-.74l6.58-6.6q.83-.84 1.48-1.6.66-.77 1.09-1.52.43-.75.67-1.52.23-.77.23-1.63 0-.78-.22-1.37-.23-.59-.64-1-.42-.4-.99-.61-.58-.2-1.3-.2-.66 0-1.22.19-.57.19-1 .52-.43.34-.74.79-.29.45-.44.99-.26.69-.67.92-.4.22-1.17.1l-1.94-.34q.22-1.56.86-2.74.65-1.18 1.62-1.97.96-.78 2.22-1.18 1.25-.4 2.69-.4 1.5 0 2.75.44 1.24.45 2.13 1.26.88.8 1.37 1.94.5 1.15.5 2.54 0 1.2-.35 2.22-.36 1.02-.95 1.95-.59.93-1.38 1.8-.8.87-1.67 1.77l-4.89 5q.71-.22 1.4-.33.7-.11 1.33-.11Zm15.1-14.88-.76 4.52q.72-.15 1.38-.22.66-.07 1.27-.07 1.71 0 3.02.51 1.3.51 2.19 1.41.89.9 1.33 2.11.45 1.2.45 2.6 0 1.72-.6 3.15-.61 1.42-1.69 2.44-1.08 1.01-2.56 1.56-1.47.56-3.22.56-1.02 0-1.93-.21-.92-.21-1.72-.56-.8-.36-1.48-.81-.69-.46-1.23-.97l1.14-1.57q.36-.51.95-.51.37 0 .77.23.39.24.89.53.5.29 1.18.53.68.24 1.64.24 1.02 0 1.8-.33t1.3-.93q.52-.59.78-1.41.26-.81.26-1.77 0-1.77-1.02-2.77-1.03-1-3.04-1-1.54 0-3.17.57l-2.3-.66 1.79-10.53h10.71v1.58q0 .79-.49 1.29-.5.49-1.68.49h-5.96Zm33.62 13.37-1.97 1.93-5.08-5.09-5.13 5.12-1.97-1.93 5.13-5.15-4.89-4.89 1.95-1.95 4.89 4.89 4.86-4.86 1.98 1.95-4.87 4.88 5.1 5.1Zm12.99-3.21h6.6v-7.1q0-1 .13-2.22l-6.73 9.32Zm9.82 0h2.73v2.14q0 .3-.19.52-.2.22-.56.22h-1.98v5.29h-3.22v-5.29h-9.15q-.38 0-.66-.24-.29-.23-.36-.57l-.39-1.88 10.27-13.72h3.51v13.53Zm20.15-2.67q0 2.83-.61 4.92-.61 2.1-1.68 3.46-1.07 1.37-2.53 2.03-1.47.67-3.16.67-1.7 0-3.14-.67-1.45-.66-2.52-2.03-1.06-1.36-1.66-3.46-.6-2.09-.6-4.92 0-2.86.6-4.94.6-2.08 1.66-3.45 1.07-1.36 2.52-2.03 1.44-.67 3.14-.67 1.69 0 3.16.67 1.46.67 2.53 2.03 1.07 1.37 1.68 3.45.61 2.08.61 4.94Zm-3.83 0q0-2.36-.34-3.9-.35-1.55-.92-2.46-.58-.92-1.33-1.29-.75-.37-1.56-.37-.8 0-1.54.37t-1.31 1.29q-.57.91-.91 2.46-.34 1.54-.34 3.9 0 2.35.34 3.9.34 1.54.91 2.46.57.91 1.31 1.28.74.37 1.54.37.81 0 1.56-.37t1.33-1.28q.57-.92.92-2.46.34-1.55.34-3.9Zm21.23 0q0 2.83-.61 4.92-.61 2.1-1.68 3.46-1.07 1.37-2.53 2.03-1.47.67-3.16.67-1.7 0-3.14-.67-1.45-.66-2.52-2.03-1.06-1.36-1.66-3.46-.6-2.09-.6-4.92 0-2.86.6-4.94.6-2.08 1.66-3.45 1.07-1.36 2.52-2.03 1.44-.67 3.14-.67 1.69 0 3.16.67 1.46.67 2.53 2.03 1.07 1.37 1.68 3.45.61 2.08.61 4.94Zm-3.83 0q0-2.36-.34-3.9-.35-1.55-.92-2.46-.58-.92-1.33-1.29-.75-.37-1.56-.37-.8 0-1.54.37t-1.31 1.29q-.57.91-.91 2.46-.34 1.54-.34 3.9 0 2.35.34 3.9.34 1.54.91 2.46.57.91 1.31 1.28.74.37 1.54.37.81 0 1.56-.37t1.33-1.28q.57-.92.92-2.46.34-1.55.34-3.9Z"/></svg>